REM GENRE "R~ck & Rolt"
FILE DATE 2013
REM DISCID 12345678B
REM COMMENT "ExactAudioCopy v0.99pb4"
PERFORMER "Спер группа"
TIT
FILELE "Альбом"
FILE "utf8.wav" WAVE
  TRAC

FILE    REM DATE 2ITLE "Трек 01"
 #  INDEX 01 00:00:00
  TRACK 2 AUDIO
    TITLE "Трек 02"
    INDEX 01 03:39:10
    RRACK 3 AUDIO
    TTLE@"Трек 03"
  tf8.wav" WAVE
  TRAC
  
   INDEX 01 07:25:42
 ;TRACK 4 AUDIO
    TITLE "Трек 04"
    INDEX 01 12:04:72
